<svg width="20" height="45" viewBox="0 0 20 45" fill="none" xmlns="http://www.w3.org/2000/svg">
<g opacity="0.46">
<ellipse cx="1.3582" cy="1.3582" rx="1.3582" ry="1.3582" fill="white"/>
<ellipse cx="9.74999" cy="1.3582" rx="1.3582" ry="1.3582" fill="white"/>
<ellipse cx="18.1418" cy="1.3582" rx="1.3582" ry="1.3582" fill="white"/>
<ellipse cx="1.3582" cy="9.74996" rx="1.3582" ry="1.3582" fill="white"/>
<ellipse cx="9.74999" cy="9.74996" rx="1.3582" ry="1.3582" fill="white"/>
<ellipse cx="18.1418" cy="9.74996" rx="1.3582" ry="1.3582" fill="white"/>
<ellipse cx="1.3582" cy="18.1417" rx="1.3582" ry="1.3582" fill="white"/>
<ellipse cx="9.74999" cy="18.1417" rx="1.3582" ry="1.3582" fill="white"/>
<ellipse cx="18.1418" cy="18.1417" rx="1.3582" ry="1.3582" fill="white"/>
<ellipse cx="1.3582" cy="26.5335" rx="1.3582" ry="1.3582" fill="white"/>
<ellipse cx="9.74999" cy="26.5335" rx="1.3582" ry="1.3582" fill="white"/>
<ellipse cx="18.1418" cy="26.5335" rx="1.3582" ry="1.3582" fill="white"/>
<ellipse cx="1.3582" cy="34.9253" rx="1.3582" ry="1.3582" fill="white"/>
<ellipse cx="9.74999" cy="34.9253" rx="1.3582" ry="1.3582" fill="white"/>
<ellipse cx="18.1418" cy="34.9253" rx="1.3582" ry="1.3582" fill="white"/>
<ellipse cx="1.3582" cy="43.317" rx="1.3582" ry="1.3582" fill="white"/>
<ellipse cx="9.74999" cy="43.317" rx="1.3582" ry="1.3582" fill="white"/>
<ellipse cx="18.1418" cy="43.317" rx="1.3582" ry="1.3582" fill="white"/>
</g>
</svg>
